<!DOCTYPE svg PUBLIC "-//W3C//DTD SVG 20000303 Stylable//EN" "http://www.w3.org/TR/2000/03/WD-SVG-20000303/DTD/svg-20000303-stylable.dtd"[]><svg xmlns="http://www.w3.org/2000/svg" width="64px" height="64px" viewBox="0 0 174 998"><path style="fill:#ccc;stroke:#4c4c4c;stroke-width:2" d="M123,942 l-31,-36 0,-901 31,31 0,906z" /><path style="fill:#b2b2b2" d="M164,994 l-31,-36 0,-912 31,31 0,917z" /><path style="fill:#999" d="M133,958 l-10,-6 0,-911 10,5 0,912z" /><path style="fill:#7f7f7f" d="M123,952 l-77,0 0,-911 77,0 0,911z" /><path style="fill:none;stroke:#4c4c4c;stroke-width:2" d="M164,994 l-31,-36 -10,-6 -77,0 0,-911 77,0 10,5 31,31 5,0 0,917 -5,0" /><path style="fill:#999" d="M169,77 l0,917 -5,0 0,-917 5,0z" /><path style="fill:#999" d="M71,77 l0,917 -5,0 0,-917 5,0z" /><path style="fill:#e5e5e5" d="M66,994 l-62,-73 0,-916 62,72 0,917z" /><path style="fill:#7f7f7f;stroke:#4c4c4c;stroke-width:2" d="M169,77 l-72,-72 -5,0 24,24 0,5 -76,0 -9,-4 -21,-25 -6,0 62,72 5,0 -25,-31 0,-5 77,0 10,5 31,31 0,0 5,0z" /><path style="fill:none;stroke:#4c4c4c;stroke-width:2" d="M71,994 l-5,0 -62,-73 0,-916 62,72 5,0 0,917" /></svg>